<svg width="102" height="73" viewBox="0 0 102 73" fill="none" xmlns="http://www.w3.org/2000/svg">
<path d="M65 22.5L44.5909 23.0455C44.3788 21.5909 43.803 20.303 42.8636 19.1818C41.9242 18.0303 40.697 17.1364 39.1818 16.5C37.697 15.8333 35.9697 15.5 34 15.5C31.4242 15.5 29.2273 16.0152 27.4091 17.0455C25.6212 18.0758 24.7424 19.4697 24.7727 21.2273C24.7424 22.5909 25.2879 23.7727 26.4091 24.7727C27.5606 25.7727 29.6061 26.5758 32.5455 27.1818L46 29.7273C52.9697 31.0606 58.1515 33.2727 61.5455 36.3636C64.9697 39.4545 66.697 43.5455 66.7273 48.6364C66.697 53.4242 65.2727 57.5909 62.4545 61.1364C59.6667 64.6818 55.8485 67.4394 51 69.4091C46.1515 71.3485 40.6061 72.3182 34.3636 72.3182C24.3939 72.3182 16.5303 70.2727 10.7727 66.1818C5.04545 62.0606 1.77273 56.5455 0.954545 49.6364L22.9091 49.0909C23.3939 51.6364 24.6515 53.5758 26.6818 54.9091C28.7121 56.2424 31.303 56.9091 34.4545 56.9091C37.303 56.9091 39.6212 56.3788 41.4091 55.3182C43.197 54.2576 44.1061 52.8485 44.1364 51.0909C44.1061 49.5152 43.4091 48.2576 42.0455 47.3182C40.6818 46.3485 38.5455 45.5909 35.6364 45.0455L23.4545 42.7273C16.4545 41.4545 11.2424 39.1061 7.81818 35.6818C4.39394 32.2273 2.69697 27.8333 2.72727 22.5C2.69697 17.8333 3.93939 13.8485 6.45455 10.5455C8.9697 7.21212 12.5455 4.66667 17.1818 2.90909C21.8182 1.15151 27.2879 0.272728 33.5909 0.272728C43.0455 0.272728 50.5 2.25758 55.9545 6.22727C61.4091 10.1667 64.4242 15.5909 65 22.5ZM90.1705 72.3182C86.8977 72.3182 84.0947 71.1667 81.7614 68.8636C79.4583 66.5606 78.322 63.7727 78.3523 60.5C78.322 57.2879 79.4583 54.5455 81.7614 52.2727C84.0947 49.9697 86.8977 48.8182 90.1705 48.8182C93.2614 48.8182 95.9886 49.9697 98.3523 52.2727C100.746 54.5455 101.958 57.2879 101.989 60.5C101.958 62.6818 101.383 64.6667 100.261 66.4545C99.1705 68.2424 97.7311 69.6667 95.9432 70.7273C94.1856 71.7879 92.2614 72.3182 90.1705 72.3182Z" fill="#F6CF05"/>
</svg>
